# xmcd
#
# Track frame offsets:
#  150
#  16081
#  29832
#  52350
#  66209
#  79019
#  93573
#  107101
#  120247
#  134734
#  149724
#  165038
#  180176
#  194314
#  207867
#  222733
#  234666
#  249672
#  264281
#  284770
#
# Disc length: 4140 seconds
#
# Revision: 0
# Processed by: cddbd v1.5.2PL0 Copyright (c) Steve Scherf et al.
# Submitted via: AltoMP3_Maker 3.0
#
DISCID=31102a14
DTITLE=Various Artist - simply ladies sing the blues CD2
DYEAR=1900
DGENRE=
TTITLE0=Lover Man
TTITLE1=I Got The Spring Fever Blues
TTITLE2=All Blues
TTITLE3='Deed I Do
TTITLE4=I Got Right To Sing The Blues
TTITLE5=You're My Thrill
TTITLE6=Nobody Knows You When You're Down And Out
TTITLE7=Born To Be Blue
TTITLE8=Blues For Bojangles
TTITLE9=Booze And Blues
TTITLE10=Am I Blue
TTITLE11=St. Louis Blues
TTITLE12=Good Morning Heartache
TTITLE13=Beale Street Blues
TTITLE14=How Long Has This Been Going On?
TTITLE15=I'm The Lonesomest Gal In Town
TTITLE16=I Got It Bad And That Ain't Good
TTITLE17=Gin House Blues
TTITLE18=Blues Early, Early
TTITLE19=Gone Again
EXTD=
EXTT0=
EXTT1=
EXTT2=
EXTT3=
EXTT4=
EXTT5=
EXTT6=
EXTT7=
EXTT8=
EXTT9=
EXTT10=
EXTT11=
EXTT12=
EXTT13=
EXTT14=
EXTT15=
EXTT16=
EXTT17=
EXTT18=
EXTT19=
PLAYORDER=
